# xmcd
#
# Track frame offsets:
# 150
# 26410
# 65737
# 104095
# 142097
# 173712
# 222860
# 258572
# 265167
# 301152
#
# Disc length: 4305 seconds
#
#
# Revision: 1
# Processed by: cddbd v1.5.2PL0 Copyright (c) Steve Scherf et al.
# Submitted via: FreeRIP 2.96 
#
DISCID=9510cf0a
DTITLE=Vineyard Music - Winds of Worship 5 - Live From Arnhem, Holland
DYEAR=1996
DGENRE=Contemporary Christian
TTITLE0=More
TTITLE1=Sweet Mercies
TTITLE2=Spirit Of The Sovereign Lord
TTITLE3=Sweet Wind
TTITLE4=Can It Be (Spontaneous Song)
TTITLE5=Break Dividing Walls
TTITLE6=Creation Calls
TTITLE7=My Jesus I Love Thee
TTITLE8=Eternity
TTITLE9=There Must Be More
EXTD=
EXTT0=
EXTT1=
EXTT2=
EXTT3=
EXTT4=
EXTT5=
EXTT6=
EXTT7=
EXTT8=
EXTT9=
PLAYORDER=
